<svg xmlns="http://www.w3.org/2000/svg" viewBox="0 0 440 440" width="440" height="440">

<circle cx="220" cy="220" r="216" fill="#FFFFFF"/><circle cx="220" cy="220" r="200" fill="#1F262B"/><g transform="translate(108.0,97.2) scale(0.56)"><path d="M345.49,116.00 L200.00,32.00 L54.51,116.00 L54.51,284.00 L200.00,368.00 L345.49,284.00Z" fill="none" stroke="#E9EDF0" stroke-width="13.0" stroke-linejoin="round"/>
<path d="M200.00,200.00 L345.49,116.00" stroke="#E9EDF0" stroke-width="13.0" stroke-opacity="0.5" stroke-linecap="round" fill="none"/>
<path d="M200.00,200.00 L54.51,116.00" stroke="#E9EDF0" stroke-width="13.0" stroke-opacity="0.5" stroke-linecap="round" fill="none"/>
<path d="M200.00,200.00 L200.00,368.00" stroke="#E9EDF0" stroke-width="13.0" stroke-opacity="0.5" stroke-linecap="round" fill="none"/>
<path d="M275.66,156.32 L200.00,112.64 L124.34,156.32 L200.00,200.00Z" fill="#F2CB7C"/>
<path d="M124.34,156.32 L124.34,243.68 L200.00,287.36 L200.00,200.00Z" fill="#E0AA45"/>
<path d="M200.00,200.00 L200.00,287.36 L275.66,243.68 L275.66,156.32Z" fill="#B07F22"/></g><g transform="translate(134.6,332.0)"><path d="M0.0,30 L0.0,0 L23.0,18.6 L46.0,0 L46.0,30" fill="none" stroke="#E9EDF0" stroke-width="5" stroke-linecap="round" stroke-linejoin="round"/>
<path d="M58.0,0 L58.0,30" fill="none" stroke="#E9EDF0" stroke-width="5" stroke-linecap="round" stroke-linejoin="round"/>
<path d="M70.0,0 L70.0,30 M70.0,0 L78.0,0 A15.0,15.0 0 0 1 78.0,30 L70.0,30" fill="none" stroke="#E9EDF0" stroke-width="5" stroke-linecap="round" stroke-linejoin="round"/>
<path d="M99.0,30 L121.0,0 L143.0,30 M107.8,20.400000000000002 L134.2,20.400000000000002" fill="none" stroke="#E9EDF0" stroke-width="5" stroke-linecap="round" stroke-linejoin="round"/>
<path d="M169.05,3.20 A9.375,7.5 0 1 0 161.375,15.0 A9.375,7.5 0 1 1 153.70,26.80" fill="none" stroke="#E9EDF0" stroke-width="5" stroke-linecap="round" stroke-linejoin="round"/></g>
</svg>
